# xmcd
#
# Track frame offsets:
#	150
#	17175
#	34200
#
# Disc length: 861 seconds
#
# Revision: 0
# Processed by: cddbd v1.5.1PL2 Copyright (c) Steve Scherf et al.
# Submitted via: audiograbber 1.83.01
#
DISCID=1e035b03
DTITLE=Gina T. - Tonight's so cold   (single)
DYEAR=1991
DGENRE=Pop
TTITLE0=Tonight's so cold
TTITLE1=Tonight's so cold (instr.)
TTITLE2=In my fantasy
EXTD=
EXTT0=
EXTT1=
EXTT2=
PLAYORDER=
